<svg width="77" height="72" viewBox="0 0 77 72" fill="none" xmlns="http://www.w3.org/2000/svg">
<path fill-rule="evenodd" clip-rule="evenodd" d="M0 2.18805C0 0.567856 1.7114 -0.488959 3.17243 0.229134L27.3079 12.0917V66.3125C27.3079 68.7658 24.6967 70.3497 22.5023 69.2275L1.19263 58.3297C0.460302 57.9552 0 57.2051 0 56.3864V2.18805Z" fill="url(#paint0_linear_425_454)"/>
<path fill-rule="evenodd" clip-rule="evenodd" d="M49 4.2204C49 2.60021 50.7114 1.54339 52.1724 2.26149L76.3079 14.124V68.3449C76.3079 70.7981 73.6967 72.382 71.5023 71.2599L50.1926 60.362C49.4603 59.9876 49 59.2375 49 58.4188V4.2204Z" fill="url(#paint1_linear_425_454)"/>
<path fill-rule="evenodd" clip-rule="evenodd" d="M18 42.5854L56.9157 31.1013L28.467 52.3461L18 42.5854Z" fill="url(#paint2_linear_425_454)"/>
<path fill-rule="evenodd" clip-rule="evenodd" d="M53.3732 34.7344L18 44.7975L42.4097 25.5348L53.3732 34.7344Z" fill="url(#paint3_linear_425_454)"/>
<path fill-rule="evenodd" clip-rule="evenodd" d="M56.9969 48.1748C56.3634 48.4399 55.1128 48.4433 54.1179 48.1826L28.5809 41.4911L58.106 28.8873L75.4825 40.4396L56.9969 48.1748Z" fill="url(#paint4_linear_425_454)"/>
<defs>
<linearGradient id="paint0_linear_425_454" x1="-2.12577" y1="-27.2921" x2="60.5457" y2="-24.6464" gradientUnits="userSpaceOnUse">
<stop stop-color="#3A8EF6"/>
<stop offset="1" stop-color="#6F3AFA"/>
</linearGradient>
<linearGradient id="paint1_linear_425_454" x1="46.8742" y1="-25.2598" x2="109.546" y2="-22.614" gradientUnits="userSpaceOnUse">
<stop stop-color="#3A8EF6"/>
<stop offset="1" stop-color="#6F3AFA"/>
</linearGradient>
<linearGradient id="paint2_linear_425_454" x1="27.5143" y1="39.5143" x2="66.6074" y2="54.208" gradientUnits="userSpaceOnUse">
<stop stop-color="#3D93FF"/>
<stop offset="1" stop-color="#65A8FB"/>
</linearGradient>
<linearGradient id="paint3_linear_425_454" x1="44.7547" y1="37.4387" x2="5.25445" y2="27.0868" gradientUnits="userSpaceOnUse">
<stop stop-color="#3D93FF"/>
<stop offset="1" stop-color="#65A8FB"/>
</linearGradient>
<linearGradient id="paint4_linear_425_454" x1="77.5854" y1="58.0526" x2="-20.4407" y2="23.6812" gradientUnits="userSpaceOnUse">
<stop stop-color="#3A8EF6"/>
<stop offset="1" stop-color="#6F3AFA"/>
</linearGradient>
</defs>
</svg>
