{
  "accessors": [
    {
      "bufferView": 2,
      "componentType": 5126,
      "count": 538,
      "max": [
        0.662283718585968,
        0.4106346368789673,
        0.6605305075645447
      ],
      "min": [
        -0.5822796821594238,
        -0.4106346368789673,
        -0.6605305075645447
      ],
      "type": "VEC3"
    },
    {
      "bufferView": 2,
      "byteOffset": 6456,
      "componentType": 5126,
      "count": 538,
      "max": [
        1.0,
        0.9976585507392883,
        0.9982367157936096
      ],
      "min": [
        -1.0,
        -0.9976585507392883,
        -0.9982367157936096
      ],
      "type": "VEC3"
    },
    {
      "bufferView": 1,
      "componentType": 5126,
      "count": 538,
      "max": [
        0.9928349256515503,
        0.9964905977249146
      ],
      "min": [
        0.003450721502304077,
        0.5059166550636292
      ],
      "type": "VEC2"
    },
    {
      "bufferView": 1,
      "byteOffset": 4304,
      "componentType": 5126,
      "count": 538,
      "max": [
        0.9928349256515503,
        0.9964905977249146
      ],
      "min": [
        0.003450721502304077,
        0.5059166550636292
      ],
      "type": "VEC2"
    },
    {
      "bufferView": 1,
      "byteOffset": 8608,
      "componentType": 5126,
      "count": 538,
      "max": [
        0.9928349256515503,
        0.9964905977249146
      ],
      "min": [
        0.003450721502304077,
        0.5059166550636292
      ],
      "type": "VEC2"
    },
    {
      "bufferView": 0,
      "componentType": 5125,
      "count": 2952,
      "type": "SCALAR"
    },
    {
      "bufferView": 2,
      "byteOffset": 12912,
      "componentType": 5126,
      "count": 642,
      "max": [
        1.0,
        1.0,
        1.0
      ],
      "min": [
        -1.0,
        -1.0,
        -1.0
      ],
      "type": "VEC3"
    },
    {
      "bufferView": 2,
      "byteOffset": 20616,
      "componentType": 5126,
      "count": 642,
      "max": [
        1.0,
        1.0,
        1.0
      ],
      "min": [
        -1.0,
        -1.0,
        -1.0
      ],
      "type": "VEC3"
    },
    {
      "bufferView": 1,
      "byteOffset": 12912,
      "componentType": 5126,
      "count": 642,
      "max": [
        0.9967929720878601,
        0.4967931807041168
      ],
      "min": [
        0.0032069340813905,
        0.0032069340813905
      ],
      "type": "VEC2"
    },
    {
      "bufferView": 1,
      "byteOffset": 18048,
      "componentType": 5126,
      "count": 642,
      "max": [
        0.9967929720878601,
        0.4967931807041168
      ],
      "min": [
        0.0032069340813905,
        0.0032069340813905
      ],
      "type": "VEC2"
    },
    {
      "bufferView": 1,
      "byteOffset": 23184,
      "componentType": 5126,
      "count": 642,
      "max": [
        0.9967929720878601,
        0.4967931807041168
      ],
      "min": [
        0.0032069340813905,
        0.0032069340813905
      ],
      "type": "VEC2"
    },
    {
      "bufferView": 1,
      "byteOffset": 28320,
      "componentType": 5126,
      "count": 642,
      "max": [
        0.9967929720878601,
        0.4967931807041168
      ],
      "min": [
        0.0032069340813905,
        0.0032069340813905
      ],
      "type": "VEC2"
    },
    {
      "bufferView": 0,
      "byteOffset": 11808,
      "componentType": 5125,
      "count": 3600,
      "type": "SCALAR"
    }
  ],
  "asset": {
    "extras": {
      "author": "UL (https://sketchfab.com/unmanned.lifemail)",
      "license": "CC-BY-4.0 (http://creativecommons.org/licenses/by/4.0/)",
      "source": "https://sketchfab.com/3d-models/blue-heart-34a8968194a34348b30779e229887e66",
      "title": "Blue Heart"
    },
    "generator": "Sketchfab-14.64.0",
    "version": "2.0"
  },
  "bufferViews": [
    {
      "buffer": 0,
      "byteLength": 26208,
      "name": "floatBufferViews",
      "target": 34963
    },
    {
      "buffer": 0,
      "byteLength": 33456,
      "byteOffset": 26208,
      "byteStride": 8,
      "name": "floatBufferViews",
      "target": 34962
    },
    {
      "buffer": 0,
      "byteLength": 28320,
      "byteOffset": 59664,
      "byteStride": 12,
      "name": "floatBufferViews",
      "target": 34962
    }
  ],
  "buffers": [
    {
      "byteLength": 87984,
      "uri": "heart.bin"
    }
  ],
  "images": [
    {
      "uri": "textures/Heart_metallicRoughness.png"
    },
    {
      "uri": "textures/Marble_baseColor.png"
    },
    {
      "uri": "textures/Marble_metallicRoughness.png"
    }
  ],
  "materials": [
    {
      "doubleSided": true,
      "name": "Heart",
      "pbrMetallicRoughness": {
        "baseColorFactor": [
          0.0,
          0.1082923599594763,
          1.0,
          1.0
        ],
        "metallicFactor": 0.937145713205983,
        "metallicRoughnessTexture": {
          "index": 0
        },
        "roughnessFactor": 0.5348587729029269
      }
    },
    {
      "alphaMode": "BLEND",
      "doubleSided": true,
      "name": "Marble",
      "pbrMetallicRoughness": {
        "baseColorFactor": [
          0.2971437627238483,
          0.2971437627238483,
          0.2971437627238483,
          0.24228645268252244
        ],
        "baseColorTexture": {
          "index": 1
        },
        "metallicRoughnessTexture": {
          "index": 2
        }
      }
    }
  ],
  "meshes": [
    {
      "name": "Object_0",
      "primitives": [
        {
          "attributes": {
            "NORMAL": 1,
            "POSITION": 0,
            "TEXCOORD_0": 2,
            "TEXCOORD_1": 3,
            "TEXCOORD_2": 4
          },
          "indices": 5,
          "material": 0,
          "mode": 4
        }
      ]
    },
    {
      "name": "Object_1",
      "primitives": [
        {
          "attributes": {
            "NORMAL": 7,
            "POSITION": 6,
            "TEXCOORD_0": 8,
            "TEXCOORD_1": 9,
            "TEXCOORD_2": 10,
            "TEXCOORD_3": 11
          },
          "indices": 12,
          "material": 1,
          "mode": 4
        }
      ]
    }
  ],
  "nodes": [
    {
      "children": [
        1
      ],
      "matrix": [
        1.0,
        0.0,
        0.0,
        0.0,
        0.0,
        2.220446049250313e-16,
        -1.0,
        0.0,
        0.0,
        1.0,
        2.220446049250313e-16,
        0.0,
        0.0,
        0.0,
        0.0,
        1.0
      ],
      "name": "Sketchfab_model"
    },
    {
      "children": [
        2
      ],
      "name": "root"
    },
    {
      "children": [
        3
      ],
      "matrix": [
        1.0,
        0.0,
        0.0,
        0.0,
        0.0,
        2.220446049250313e-16,
        1.0,
        0.0,
        0.0,
        -1.0,
        2.220446049250313e-16,
        0.0,
        0.0,
        0.0,
        0.0,
        1.0
      ],
      "name": "GLTF_SceneRootNode"
    },
    {
      "children": [
        4
      ],
      "matrix": [
        1.0,
        0.0,
        0.0,
        0.0,
        0.0,
        2.220446049250313e-16,
        -1.0,
        0.0,
        0.0,
        1.0,
        2.220446049250313e-16,
        0.0,
        0.0,
        0.0,
        0.0,
        1.0
      ],
      "name": "Sketchfab_model_0"
    },
    {
      "children": [
        5
      ],
      "matrix": [
        1.0,
        0.0,
        0.0,
        0.0,
        0.0,
        0.0,
        1.0,
        0.0,
        0.0,
        -1.0,
        0.0,
        0.0,
        0.0,
        0.0,
        0.0,
        1.0
      ],
      "name": "heart_in_love_original.fbx_1"
    },
    {
      "children": [
        6,
        9
      ],
      "name": "RootNode_2"
    },
    {
      "children": [
        7
      ],
      "matrix": [
        -2.8212996767251752e-05,
        -100.0,
        1.6653345369377348e-14,
        0.0,
        -1.6292067812173627e-05,
        4.5852210917018965e-12,
        -100.0,
        0.0,
        100.0,
        -2.8212996767251752e-05,
        -1.6292067812173627e-05,
        0.0,
        0.0,
        0.0,
        0.0,
        1.0
      ],
      "name": "Heart_3"
    },
    {
      "children": [
        8
      ],
      "name": "Heart_Heart_0_4"
    },
    {
      "mesh": 0,
      "name": "Object_8"
    },
    {
      "children": [
        10
      ],
      "matrix": [
        100.0,
        0.0,
        0.0,
        0.0,
        0.0,
        -1.6292067812173627e-05,
        -100.0,
        0.0,
        0.0,
        100.0,
        -1.6292067812173627e-05,
        0.0,
        0.0,
        0.0,
        0.0,
        1.0
      ],
      "name": "Marble_5"
    },
    {
      "children": [
        11
      ],
      "name": "Marble_Marble_0_6"
    },
    {
      "mesh": 1,
      "name": "Object_11"
    }
  ],
  "samplers": [
    {
      "magFilter": 9729,
      "minFilter": 9987,
      "wrapS": 10497,
      "wrapT": 10497
    }
  ],
  "scene": 0,
  "scenes": [
    {
      "name": "Sketchfab_Scene",
      "nodes": [
        0
      ]
    }
  ],
  "textures": [
    {
      "sampler": 0,
      "source": 0
    },
    {
      "sampler": 0,
      "source": 1
    },
    {
      "sampler": 0,
      "source": 2
    }
  ]
}
